
          <svg data-logo="logo" xmlns="http://www.w3.org/2000/svg" viewBox="0 0 194 43">
            <g id="logogram" transform="translate(0, 1) rotate(0)"><path d="M40.1669 22.2869H33.0024C26.7443 22.2869 21.671 27.3601 21.671 33.6183V40.7827C31.5483 40.0504 39.4345 32.1641 40.1669 22.2869Z" fill="#775732"/><path d="M18.6627 40.7827V33.6183C18.6627 27.3601 13.5895 22.2869 7.33131 22.2869H0.16687C0.899233 32.1641 8.78544 40.0504 18.6627 40.7827Z" fill="#775732"/><path d="M40.1669 19.2785C39.4345 9.40129 31.5483 1.51508 21.671 0.782715V7.94716C21.671 14.2053 26.7443 19.2785 33.0024 19.2785H40.1669Z" fill="#775732"/><path d="M18.6627 0.782715C8.78544 1.51508 0.899233 9.40129 0.16687 19.2785H7.33131C13.5895 19.2785 18.6627 14.2053 18.6627 7.94716V0.782715Z" fill="#775732"/><path d="M13.7321 20.7824C16.5123 19.3934 18.7781 17.1276 20.1671 14.3474C21.5562 17.1276 23.8219 19.3934 26.6022 20.7824C23.8219 22.1715 21.5562 24.4373 20.1671 27.2175C18.7781 24.4373 16.5123 22.1715 13.7321 20.7824Z" fill="#CA9352"/></g>
            <g id="logotype" transform="translate(47, 8.5)"><path fill="#111111" d="M19.64 26L13.67 26L6.84 0.54L12.53 0.54L15.48 13.06Q15.84 14.64 16.14 16.42Q16.44 18.21 16.73 20.01Q17.02 21.81 17.30 23.47L17.30 23.47L16.37 23.47Q16.68 21.81 16.99 20.01Q17.30 18.21 17.62 16.42Q17.95 14.64 18.34 13.06L18.34 13.06L21.45 0.54L26.87 0.54L29.96 13.06Q30.35 14.64 30.68 16.42Q31.00 18.21 31.32 20.01Q31.63 21.81 31.94 23.47L31.94 23.47L30.99 23.47Q31.28 21.81 31.56 20.01Q31.84 18.21 32.16 16.42Q32.47 14.64 32.81 13.06L32.81 13.06L35.77 0.54L41.48 0.54L34.63 26L28.68 26L25.29 12.98Q24.75 10.81 24.36 8.27Q23.98 5.73 23.50 3.07L23.50 3.07L24.80 3.07Q24.27 5.68 23.94 8.18Q23.60 10.67 23.00 12.98L23.00 12.98L19.64 26ZM50.86 26.38L50.86 26.38Q47.94 26.38 45.82 25.18Q43.70 23.98 42.56 21.78Q41.43 19.57 41.43 16.55L41.43 16.55Q41.43 13.59 42.55 11.37Q43.68 9.15 45.75 7.90Q47.82 6.65 50.60 6.65L50.60 6.65Q52.48 6.65 54.11 7.25Q55.73 7.85 56.96 9.06Q58.19 10.26 58.88 12.07Q59.57 13.88 59.57 16.34L59.57 16.34L59.57 17.78L43.53 17.78L43.53 14.57L57.06 14.57L54.67 15.42Q54.67 13.93 54.22 12.83Q53.76 11.73 52.87 11.12Q51.97 10.52 50.64 10.52L50.64 10.52Q49.32 10.52 48.39 11.13Q47.46 11.75 46.98 12.80Q46.50 13.85 46.50 15.20L46.50 15.20L46.50 17.47Q46.50 19.13 47.06 20.26Q47.61 21.39 48.61 21.95Q49.61 22.51 50.94 22.51L50.94 22.51Q51.85 22.51 52.58 22.26Q53.32 22.00 53.84 21.50Q54.36 20.99 54.64 20.26L54.64 20.26L59.28 21.13Q58.82 22.70 57.68 23.89Q56.53 25.08 54.82 25.73Q53.10 26.38 50.86 26.38ZM72.05 26.34L72.05 26.34Q68.66 26.34 65.99 24.80Q63.32 23.27 61.77 20.34Q60.22 17.42 60.22 13.29L60.22 13.29Q60.22 9.13 61.78 6.20Q63.33 3.27 66.02 1.73Q68.70 0.19 72.05 0.19L72.05 0.19Q74.22 0.19 76.09 0.80Q77.96 1.41 79.41 2.57Q80.87 3.73 81.79 5.42Q82.71 7.10 83.00 9.23L83.00 9.23L77.72 9.23Q77.55 8.19 77.06 7.38Q76.58 6.57 75.85 6.00Q75.12 5.42 74.18 5.12Q73.24 4.83 72.15 4.83L72.15 4.83Q70.17 4.83 68.66 5.82Q67.16 6.81 66.34 8.70Q65.52 10.58 65.52 13.29L65.52 13.29Q65.52 16.04 66.36 17.92Q67.19 19.80 68.68 20.75Q70.17 21.71 72.13 21.71L72.13 21.71Q73.23 21.71 74.16 21.41Q75.09 21.11 75.83 20.54Q76.58 19.97 77.06 19.15Q77.55 18.33 77.74 17.30L77.74 17.30L83.02 17.30Q82.81 19.06 81.97 20.69Q81.12 22.31 79.72 23.59Q78.32 24.87 76.39 25.61Q74.46 26.34 72.05 26.34ZM88.83 26L83.07 26L91.77 0.54L98.60 0.54L107.52 26L101.73 26L97.65 13.71Q96.91 11.34 96.15 8.51Q95.39 5.68 94.55 2.33L94.55 2.33L95.68 2.33Q94.88 5.70 94.17 8.54Q93.46 11.39 92.76 13.71L92.76 13.71L88.83 26ZM102.09 20.09L88.50 20.09L88.50 16.00L102.09 16.00L102.09 20.09ZM113.61 26L108.39 26L108.39 0.54L118.32 0.54Q121.23 0.54 123.26 1.56Q125.30 2.59 126.36 4.45Q127.43 6.31 127.43 8.82L127.43 8.82Q127.43 11.34 126.35 13.16Q125.26 14.98 123.20 15.94Q121.14 16.91 118.20 16.91L118.20 16.91L111.47 16.91L111.47 12.69L117.37 12.69Q118.97 12.69 120.00 12.25Q121.02 11.82 121.54 10.95Q122.05 10.09 122.05 8.82L122.05 8.82Q122.05 7.53 121.54 6.65Q121.02 5.77 119.99 5.30Q118.96 4.84 117.35 4.84L117.35 4.84L113.61 4.84L113.61 26ZM128.34 26L122.56 26L116.36 14.41L122.01 14.41L128.34 26ZM146.18 26L129.10 26L129.10 0.54L146.14 0.54L146.14 4.86L134.32 4.86L134.32 11.01L145.24 11.01L145.24 15.27L134.32 15.27L134.32 21.68L146.18 21.68L146.18 26Z"/></g>
            
          </svg>
        